<svg width="52" height="52" viewBox="0 0 52 52" fill="none" xmlns="http://www.w3.org/2000/svg">
<path d="M48.75 26C48.75 38.558 38.5694 48.75 26 48.75C13.4306 48.75 3.25 38.558 3.25 26C3.25 13.4306 13.4306 3.25 26 3.25C38.5694 3.25 48.75 13.4306 48.75 26Z" fill="black"/>
<path d="M36.6634 20.2433C36.5393 20.3157 33.584 21.844 33.584 25.2328C33.7233 29.0974 37.3134 30.4527 37.375 30.4527C37.3134 30.5251 36.833 32.299 35.4099 34.1584C34.2804 35.7601 33.0269 37.375 31.1233 37.375C29.3126 37.375 28.6626 36.3075 26.5733 36.3075C24.3295 36.3075 23.6947 37.375 21.9768 37.375C20.0732 37.375 18.7268 35.6736 17.5358 34.0869C15.9885 32.0102 14.6734 28.7513 14.627 25.6221C14.5957 23.964 14.9368 22.3341 15.8028 20.9496C17.0251 19.0168 19.2073 17.7048 21.5903 17.6615C23.4161 17.6041 25.0411 18.8296 26.1554 18.8296C27.2233 18.8296 29.2197 17.6615 31.4786 17.6615C32.4536 17.6624 35.0536 17.9361 36.6634 20.2433ZM26.001 17.3304C25.676 15.8162 26.5733 14.3019 27.409 13.336C28.4768 12.1679 30.1634 11.375 31.6178 11.375C31.7107 12.8893 31.1223 14.3743 30.0706 15.456C29.1268 16.6241 27.5018 17.5035 26.001 17.3304Z" fill="white"/>
</svg>
